<svg width="26" height="30" viewBox="0 0 26 30" fill="none" xmlns="http://www.w3.org/2000/svg">
<path d="M2.1646 9.71753C1.6477 9.71753 1.20913 9.89778 0.848621 10.2583C0.48811 10.6188 0.3078 11.0514 0.3078 11.5563V19.3087C0.3078 19.8262 0.488056 20.2644 0.848621 20.625C1.20913 20.9855 1.6477 21.1658 2.1646 21.1658C2.68112 21.1658 3.11703 20.9855 3.47196 20.625C3.82618 20.2645 4.00377 19.8262 4.00377 19.3087V11.5563C4.00377 11.0514 3.82352 10.6188 3.46295 10.2583C3.10239 9.89778 2.66951 9.71753 2.1646 9.71753Z" fill="#FFFFFA"/>
<path d="M17.0927 2.75818L18.3728 0.396789C18.4568 0.240455 18.4269 0.120574 18.2828 0.0362778C18.1264 -0.0364103 18.0063 0.000421913 17.9223 0.144171L16.6243 2.52443C15.4822 2.01947 14.2742 1.76653 13.0004 1.76653C11.7263 1.76653 10.5182 2.01952 9.37651 2.52443L8.07849 0.144171C7.99414 0.000421913 7.87399 -0.0360849 7.71798 0.0362778C7.57358 0.120954 7.54369 0.240455 7.62804 0.396789L8.90816 2.75818C7.61014 3.42013 6.57634 4.34202 5.80715 5.52586C5.03796 6.71035 4.6532 8.00474 4.6532 9.4113H21.3295C21.3295 8.00506 20.9447 6.71062 20.1755 5.52586C19.4063 4.34202 18.3784 3.42013 17.0927 2.75818ZM9.69189 6.19285C9.55346 6.33161 9.38812 6.40066 9.19593 6.40066C9.00336 6.40066 8.84139 6.33161 8.70925 6.19285C8.57711 6.05474 8.51104 5.89006 8.51104 5.69722C8.51104 5.50503 8.57711 5.34001 8.70925 5.20158C8.84139 5.06347 9.00374 4.99442 9.19593 4.99442C9.38812 4.99442 9.55346 5.06347 9.69189 5.20158C9.83 5.34034 9.89938 5.50503 9.89938 5.69722C9.899 5.88973 9.82968 6.05474 9.69189 6.19285ZM17.2908 6.19285C17.1584 6.33161 16.9961 6.40066 16.8042 6.40066C16.6116 6.40066 16.4463 6.33161 16.3081 6.19285C16.1698 6.05474 16.1007 5.89006 16.1007 5.69722C16.1007 5.50503 16.1698 5.34001 16.3081 5.20158C16.4463 5.06347 16.6116 4.99442 16.8042 4.99442C16.9964 4.99442 17.1584 5.06347 17.2908 5.20158C17.4231 5.34034 17.489 5.50503 17.489 5.69722C17.489 5.88973 17.423 6.05474 17.2908 6.19285Z" fill="#FFFFFA"/>
<path d="M4.72479 22.067C4.72479 22.6204 4.91698 23.0889 5.30142 23.4733C5.68617 23.8577 6.15463 24.0499 6.70766 24.0499H8.04186L8.06014 28.1429C8.06014 28.6598 8.2404 29.0986 8.60091 29.4592C8.96142 29.8198 9.39435 30 9.89894 30C10.4155 30 10.8544 29.8198 11.2149 29.4592C11.5755 29.0986 11.7557 28.6598 11.7557 28.1429V24.0503H14.2436V28.1429C14.2436 28.6598 14.4238 29.0986 14.7844 29.4592C15.145 29.8198 15.5834 30 16.1004 30C16.6169 30 17.0558 29.8198 17.4163 29.4592C17.7769 29.0986 17.9571 28.6598 17.9571 28.1429V24.0503H19.3093C19.8501 24.0503 20.3125 23.8581 20.6977 23.4736C21.0821 23.0892 21.2744 22.6207 21.2744 22.0674V10.0597H4.72479V22.067Z" fill="#FFFFFA"/>
<path d="M23.8355 9.71753C23.3305 9.71753 22.898 9.89513 22.5374 10.2493C22.1769 10.6042 21.9966 11.0401 21.9966 11.5563V19.3087C21.9966 19.8262 22.1768 20.2644 22.5374 20.625C22.898 20.9855 23.3308 21.1658 23.8355 21.1658C24.3521 21.1658 24.7909 20.9855 25.1515 20.625C25.512 20.2644 25.6922 19.8262 25.6922 19.3087V11.5563C25.6922 11.0401 25.512 10.6042 25.1515 10.2493C24.7909 9.89513 24.3521 9.71753 23.8355 9.71753Z" fill="#FFFFFA"/>
</svg>
