<svg width="26" height="30" viewBox="0 0 26 30" fill="none" xmlns="http://www.w3.org/2000/svg">
<path d="M18.7733 0C18.8431 0 18.9129 0 18.9867 0C19.1579 2.11566 18.3504 3.69648 17.369 4.84126C16.406 5.97813 15.0873 7.08075 12.9545 6.91345C12.8123 4.82809 13.6211 3.36451 14.6012 2.22237C15.5102 1.15795 17.1766 0.210776 18.7733 0Z" fill="#FFFFFA"/>
<path d="M25.2296 22.0208C25.2296 22.0419 25.2296 22.0604 25.2296 22.0801C24.6302 23.8954 23.7753 25.4512 22.7319 26.895C21.7795 28.2058 20.6123 29.9697 18.5283 29.9697C16.7275 29.9697 15.5313 28.8118 13.6857 28.7802C11.7334 28.7485 10.6598 29.7484 8.87475 30C8.67056 30 8.46637 30 8.26613 30C6.95537 29.8103 5.89753 28.7723 5.12689 27.8369C2.85446 25.0731 1.09843 21.5031 0.771729 16.9346C0.771729 16.4867 0.771729 16.0401 0.771729 15.5922C0.91005 12.3225 2.49877 9.66411 4.61048 8.37574C5.72496 7.69072 7.25704 7.10713 8.96301 7.36797C9.69414 7.48126 10.4411 7.73156 11.0958 7.97922C11.7163 8.21766 12.4922 8.64053 13.2273 8.61813C13.7252 8.60364 14.2205 8.34412 14.7225 8.16101C16.1926 7.63012 17.6338 7.0215 19.5334 7.30737C21.8164 7.65251 23.4367 8.66687 24.4379 10.2319C22.5067 11.461 20.9799 13.3132 21.2407 16.4761C21.4726 19.3493 23.143 21.0302 25.2296 22.0208Z" fill="#FFFFFA"/>
</svg>