<svg width="17" height="19" viewBox="0 0 17 19" fill="none" xmlns="http://www.w3.org/2000/svg">
<path d="M16.5933 8.19604C16.5852 8.2024 16.5747 8.20807 16.5665 8.21443C16.4868 8.27318 16.4026 8.33039 16.3119 8.3864C16.2974 8.39516 16.2816 8.40358 16.2672 8.41252C16.1851 8.46096 16.0987 8.50855 16.0085 8.55494L15.9349 8.59291C15.8312 8.64428 15.7238 8.69427 15.6099 8.74289L15.5427 8.77021C15.4427 8.81179 15.3396 8.85199 15.2335 8.89099L15.1465 8.92294C15.0221 8.9671 14.894 9.0097 14.7619 9.05111L14.6729 9.07774C14.5578 9.11296 14.4406 9.14577 14.321 9.17841C14.2894 9.18683 14.2585 9.19559 14.2267 9.20384C14.086 9.24112 13.941 9.27617 13.7915 9.30933C13.7563 9.3174 13.7211 9.32479 13.6859 9.33252C13.5565 9.36138 13.4249 9.38904 13.2912 9.4155L13.1976 9.43423C13.0418 9.46429 12.8834 9.49247 12.7222 9.5191C12.6832 9.5258 12.6434 9.53164 12.604 9.538C12.4633 9.56085 12.3187 9.58266 12.1733 9.60311L12.0864 9.61548C11.9197 9.63884 11.7512 9.6598 11.5811 9.67836L11.4531 9.69245C11.2973 9.70945 11.1406 9.72509 10.9827 9.73969L10.9186 9.74571C10.7427 9.76117 10.5668 9.77405 10.3909 9.78608L10.2599 9.79587C10.0924 9.80652 9.92476 9.81563 9.75674 9.82336L9.71499 9.82542C9.53546 9.83315 9.35592 9.83917 9.17622 9.84312L9.04462 9.84587C8.86354 9.84947 8.68229 9.85188 8.50138 9.85188C8.32064 9.85188 8.13939 9.84947 7.95814 9.84587L7.82654 9.84312C7.64666 9.83882 7.46713 9.83298 7.28794 9.82542L7.24602 9.82336C7.07782 9.81563 6.91014 9.80652 6.74281 9.79587L6.6112 9.78711C6.43528 9.77526 6.25935 9.7622 6.08343 9.74674L6.01952 9.74072C5.86163 9.72646 5.70477 9.71066 5.54895 9.69348L5.42096 9.67939C5.25104 9.6598 5.08268 9.63884 4.91568 9.61651L4.82738 9.60551C4.68203 9.58524 4.53892 9.56342 4.39667 9.54057C4.35733 9.53422 4.31747 9.5282 4.27847 9.5215C4.11749 9.4947 3.95909 9.46653 3.80309 9.43663L3.70946 9.41808C3.57579 9.39162 3.44419 9.36379 3.31483 9.33492C3.27961 9.32719 3.24439 9.31981 3.20917 9.31173C3.06073 9.27806 2.91573 9.24284 2.77399 9.20624C2.74238 9.19817 2.71128 9.18941 2.67967 9.18082C2.55941 9.14818 2.44224 9.11467 2.32782 9.08031L2.23883 9.05351C2.10654 9.01228 1.97837 8.9695 1.85416 8.92552L1.7674 8.89339C1.66105 8.85456 1.55797 8.81419 1.45798 8.77279L1.39081 8.7453C1.27759 8.69668 1.16953 8.64686 1.06576 8.59549L0.992226 8.55735C0.90203 8.51096 0.8163 8.46354 0.733491 8.41492C0.719232 8.40616 0.703254 8.39774 0.688822 8.38881C0.598111 8.33297 0.512897 8.27559 0.434211 8.21683C0.426136 8.21048 0.415484 8.20481 0.40741 8.19845V11.963C0.40741 12.8443 3.48611 14.0741 8.5 14.0741C13.5139 14.0741 16.5926 12.8443 16.5926 11.963L16.5933 8.19604Z" fill="#FFFFFA"/>
<path d="M16.5933 13.1219C16.5852 13.1283 16.5747 13.134 16.5665 13.1403C16.4868 13.1991 16.4026 13.2563 16.3119 13.3123C16.2974 13.3211 16.2816 13.3295 16.2672 13.3384C16.1851 13.3869 16.0987 13.4345 16.0085 13.4808L15.9349 13.5188C15.8312 13.5702 15.7238 13.6202 15.6099 13.6688L15.5427 13.6961C15.4427 13.7377 15.3396 13.7779 15.2335 13.8169L15.1465 13.8488C15.0221 13.893 14.894 13.9356 14.7619 13.977L14.6729 14.0036C14.5578 14.0389 14.4406 14.0717 14.321 14.1043C14.2894 14.1127 14.2585 14.1215 14.2267 14.1297C14.086 14.167 13.941 14.2021 13.7915 14.2352C13.7563 14.2433 13.7211 14.2507 13.6859 14.2584C13.5565 14.2873 13.4249 14.3149 13.2912 14.3414L13.1976 14.3601C13.0418 14.3899 12.8834 14.4182 12.7222 14.445C12.6832 14.4517 12.6434 14.4575 12.604 14.4639C12.4633 14.4867 12.3187 14.5086 12.1733 14.529L12.0864 14.5414C11.9197 14.5647 11.7512 14.5857 11.5811 14.6043L11.4531 14.6183C11.2973 14.6354 11.1406 14.651 10.9827 14.6656L10.9186 14.6716C10.7427 14.6871 10.5668 14.7 10.3909 14.712L10.2599 14.7218C10.0924 14.7324 9.92476 14.7415 9.75674 14.7493L9.71499 14.7513C9.53546 14.7591 9.35592 14.7651 9.17622 14.769L9.04462 14.7718C8.86354 14.7754 8.68229 14.7778 8.50138 14.7778C8.32064 14.7778 8.13939 14.7754 7.95814 14.7718L7.82654 14.769C7.64666 14.7647 7.46713 14.7589 7.28794 14.7513L7.24602 14.7493C7.07782 14.7415 6.91014 14.7324 6.74281 14.7218L6.6112 14.713C6.43528 14.7012 6.25935 14.6881 6.08343 14.6726L6.01952 14.6666C5.86163 14.6524 5.70477 14.6366 5.54895 14.6194L5.42096 14.6053C5.25104 14.5857 5.08268 14.5647 4.91568 14.5424L4.82738 14.5314C4.68203 14.5111 4.53892 14.4893 4.39667 14.4665C4.35733 14.4601 4.31747 14.4541 4.27847 14.4474C4.11749 14.4206 3.95909 14.3924 3.80309 14.3625L3.70946 14.344C3.57579 14.3177 3.44419 14.29 3.31483 14.2608C3.27961 14.2531 3.24439 14.2457 3.20917 14.2376C3.06073 14.204 2.91573 14.1687 2.77399 14.1321C2.74238 14.1241 2.71128 14.1153 2.67967 14.1067C2.55941 14.0741 2.44224 14.0406 2.32782 14.0062L2.23883 13.9794C2.10654 13.9384 1.97837 13.8957 1.85416 13.8514L1.7674 13.8193C1.66105 13.7805 1.55797 13.7401 1.45798 13.6987L1.39081 13.6712C1.27759 13.6226 1.16953 13.5728 1.06576 13.5214L0.992226 13.4832C0.90203 13.4369 0.8163 13.3894 0.733491 13.3408C0.719232 13.3321 0.703254 13.3236 0.688822 13.3147C0.598111 13.2589 0.512897 13.2015 0.434211 13.1427C0.426136 13.1364 0.415484 13.1307 0.40741 13.1244V16.8889C0.40741 17.7702 3.48611 19 8.5 19C13.5139 19 16.5926 17.7702 16.5926 16.8889L16.5933 13.1219Z" fill="#FFFFFA"/>
<path d="M16.5933 3.27014C16.5852 3.2765 16.5747 3.28217 16.5665 3.28852C16.4868 3.34728 16.4026 3.40449 16.3119 3.4605C16.2974 3.46926 16.2816 3.47768 16.2672 3.48661C16.1851 3.53506 16.0987 3.58265 16.0085 3.62732L15.9349 3.66529C15.8312 3.71666 15.7238 3.76665 15.6099 3.8151L15.5427 3.84259C15.4427 3.88416 15.3396 3.92437 15.2335 3.96337L15.1465 3.99532C15.0221 4.03947 14.894 4.08208 14.7619 4.12349L14.6729 4.15011C14.5578 4.18533 14.4406 4.21798 14.321 4.25079C14.2894 4.25921 14.2585 4.26797 14.2267 4.27605C14.086 4.31333 13.941 4.34855 13.7915 4.3817C13.7563 4.38978 13.7211 4.39717 13.6859 4.4049C13.5565 4.43376 13.4249 4.46142 13.2912 4.48788L13.1976 4.50661C13.0418 4.53667 12.8834 4.56485 12.7222 4.5913C12.6832 4.598 12.6434 4.60402 12.604 4.61037C12.4633 4.63322 12.3187 4.65504 12.1733 4.67549L12.0864 4.68786C11.9197 4.71122 11.7512 4.73218 11.5811 4.75074L11.4531 4.76482C11.2973 4.78166 11.1406 4.79747 10.9827 4.8119L10.9186 4.81791C10.7427 4.83337 10.5668 4.84643 10.3909 4.85846L10.2599 4.86997C10.0924 4.88062 9.92476 4.88972 9.75674 4.89746L9.71499 4.89952C9.53546 4.90725 9.35592 4.91326 9.17622 4.91721L9.04462 4.91996C8.86354 4.92357 8.68229 4.92598 8.50138 4.92598C8.32064 4.92598 8.13939 4.92357 7.95814 4.91996L7.82654 4.91721C7.64666 4.91292 7.46713 4.90708 7.28794 4.89952L7.24602 4.89746C7.07782 4.88972 6.91014 4.88062 6.74281 4.86997L6.6112 4.86121C6.43528 4.84935 6.25935 4.83629 6.08343 4.82083L6.01952 4.81482C5.86163 4.80056 5.70477 4.78475 5.54895 4.76757L5.42096 4.75349C5.25104 4.7339 5.08268 4.71294 4.91568 4.69061L4.82738 4.67961C4.68203 4.65934 4.53892 4.63752 4.39667 4.61467C4.35733 4.60831 4.31747 4.6023 4.27847 4.5956C4.11749 4.5688 3.95909 4.54062 3.80309 4.51073L3.70946 4.49217C3.57579 4.46572 3.44419 4.43788 3.31483 4.40902C3.27961 4.40129 3.24439 4.3939 3.20917 4.38583C3.06073 4.35215 2.91573 4.31694 2.77399 4.28034C2.74238 4.27227 2.71128 4.2635 2.67967 4.25491C2.55941 4.22227 2.44224 4.18877 2.32782 4.15441L2.23883 4.12761C2.10654 4.08638 1.97837 4.0436 1.85416 3.99962L1.7674 3.96749C1.66105 3.92866 1.55797 3.88829 1.45798 3.84688L1.39081 3.81939C1.27759 3.77077 1.16953 3.72095 1.06576 3.66958L0.992226 3.63144C0.90203 3.58506 0.8163 3.53764 0.733491 3.49074C0.719232 3.48197 0.703254 3.47356 0.688822 3.46479C0.598111 3.40879 0.512897 3.3514 0.434211 3.29265C0.426136 3.28629 0.415484 3.28079 0.40741 3.27444V7.03709C0.40741 7.91672 3.48611 9.1482 8.5 9.1482C13.5139 9.1482 16.5926 7.91672 16.5926 7.03709L16.5933 3.27014Z" fill="#FFFFFA"/>
<path d="M16.5933 2.11111C16.5933 0.945258 12.9701 0 8.50067 0C4.03123 0 0.408081 0.945258 0.408081 2.11111C0.408081 3.27696 4.03123 4.22222 8.50067 4.22222C12.9701 4.22222 16.5933 3.27696 16.5933 2.11111Z" fill="#FFFFFA"/>
</svg>
