<svg width="31" height="31" viewBox="0 0 31 31" fill="none" xmlns="http://www.w3.org/2000/svg">
<path d="M2.66407 15.5H11.4912L14.8579 18.8668C15.1197 19.1284 15.5126 19.2033 15.8477 19.0635C16.1873 18.9235 16.4082 18.5917 16.4082 18.2246V15.5H19.1328C20.6352 15.5 21.8575 14.2777 21.8575 12.7754V3.69336C21.8575 2.19081 20.6352 0.96875 19.1328 0.96875H2.66407C1.16175 0.96875 -0.0605469 2.19081 -0.0605469 3.69336V12.7754C-0.0605469 14.2777 1.16175 15.5 2.66407 15.5ZM16.4082 6.41798C17.4096 6.41798 18.2246 7.233 18.2246 8.23439C18.2246 9.23578 17.4096 10.0508 16.4082 10.0508C15.4068 10.0508 14.5918 9.23578 14.5918 8.23439C14.5918 7.233 15.4068 6.41798 16.4082 6.41798ZM10.959 6.41798C11.9604 6.41798 12.7754 7.233 12.7754 8.23439C12.7754 9.23578 11.9604 10.0508 10.959 10.0508C9.95761 10.0508 9.1426 9.23578 9.1426 8.23439C9.1426 7.233 9.95761 6.41798 10.959 6.41798ZM5.44923 6.41798C6.45062 6.41798 7.26564 7.233 7.26564 8.23439C7.26564 9.23578 6.45062 10.0508 5.44923 10.0508C4.44784 10.0508 3.63282 9.23578 3.63282 8.23439C3.63282 7.233 4.44784 6.41798 5.44923 6.41798Z" fill="#FFFFFA"/>
<path d="M0.847658 30.0313H13.554C13.7172 30.0313 14.0613 29.9024 14.0923 29.886L16.6717 28.5963C16.7443 28.5599 16.8351 28.5055 16.9077 28.4329L14.3284 25.8535C14.2557 25.9261 14.2013 26.0169 14.1649 26.0896L13.1023 28.2149H0.847658C0.34578 28.2149 -0.0605469 28.6209 -0.0605469 29.1231C-0.0605469 29.6249 0.34578 30.0313 0.847658 30.0313Z" fill="#FFFFFA"/>
<path d="M24.8907 15.3363L15.618 24.582L18.1792 27.1432L27.4701 17.9157L24.8907 15.3363Z" fill="#FFFFFA"/>
<path d="M29.3956 12.1396C29.0323 11.7764 28.4509 11.7764 28.1059 12.1396L26.1804 14.0651L28.7416 16.626L30.667 14.7008C31.0303 14.3555 31.0303 13.7744 30.667 13.4111L29.3956 12.1396Z" fill="#FFFFFA"/>
</svg>
