<svg width="37" height="41" viewBox="0 0 37 41" fill="none" xmlns="http://www.w3.org/2000/svg">
<path d="M35.4021 17.0228L19.4114 1.0298C18.4683 0.0890381 16.9428 0.100169 16.012 1.0286C15.076 1.96703 15.076 3.49076 16.012 4.428L32.005 20.4199C32.9419 21.3568 34.4651 21.3568 35.4021 20.4199C36.3416 19.4804 36.3416 17.9621 35.4021 17.0228Z" fill="#FFFFFA"/>
<path d="M14.8256 6.63892L14.7053 7.24223C13.8575 11.483 11.7971 15.5118 9.01025 18.7772L17.7105 27.4774C20.9755 24.6912 24.9488 22.5755 29.1897 21.7266L29.7942 21.6063L14.8256 6.63892Z" fill="#FFFFFA"/>
<path d="M7.41518 20.5792L1.46913 26.5241C0.0641579 27.929 0.0583122 30.21 1.46913 31.6208L4.86621 35.0179C6.27119 36.4229 8.55214 36.4286 9.96296 35.0179L15.9084 29.0724L7.41518 20.5792ZM8.2645 29.9224C7.79532 30.3915 7.03513 30.3915 6.56595 29.9224C6.09678 29.4532 6.09678 28.693 6.56595 28.2238L8.2645 26.5253C8.73367 26.0561 9.49386 26.0561 9.96304 26.5253C10.4322 26.9945 10.4322 27.7546 9.96304 28.2238L8.2645 29.9224Z" fill="#FFFFFA"/>
<path d="M20.9237 35.6571L22.5577 34.0231C23.9686 32.6125 23.9639 30.3315 22.5578 28.9277L21.3441 27.7131C20.6733 28.1637 20.0326 28.6533 19.4098 29.1758L20.8592 30.6273C21.3273 31.093 21.3306 31.8509 20.8592 32.3247L19.1982 33.9857L16.7573 31.6207L13.36 35.018L18.8099 40.2989C19.74 41.2313 21.267 41.2366 22.2058 40.2977C23.1431 39.3605 23.1431 37.8367 22.2058 36.8994L20.9237 35.6571Z" fill="#FFFFFA"/>
<path d="M25.7763 0C25.1124 0 24.5751 0.537245 24.5751 1.20117V3.60352C24.5751 4.26745 25.1124 4.8047 25.7763 4.8047C26.4402 4.8047 26.9775 4.26745 26.9775 3.60352V1.20117C26.9775 0.537245 26.4402 0 25.7763 0Z" fill="#FFFFFA"/>
<path d="M35.3857 9.60938H32.9833C32.3194 9.60938 31.7822 10.1466 31.7822 10.8105C31.7822 11.4745 32.3194 12.0117 32.9833 12.0117H35.3857C36.0496 12.0117 36.5869 11.4745 36.5869 10.8105C36.5869 10.1466 36.0496 9.60938 35.3857 9.60938Z" fill="#FFFFFA"/>
<path d="M33.8325 2.75423C33.3633 2.28505 32.6032 2.28505 32.134 2.75423L29.7316 5.15658C29.2625 5.62575 29.2625 6.38594 29.7316 6.85512C30.2008 7.3243 30.961 7.32438 31.4302 6.85512L33.8325 4.45277C34.3017 3.98359 34.3017 3.22341 33.8325 2.75423Z" fill="#FFFFFA"/>
</svg>
